<svg width="29" height="27" viewBox="0 0 29 27" fill="none" xmlns="http://www.w3.org/2000/svg">
<path d="M15.3153 16.7691L13.783 15.586C13.6358 15.4767 13.5 15.3712 13.3679 15.2695C13.1716 15.1188 12.9943 14.9832 12.8282 14.8588C12.047 14.2597 11.6054 13.9093 11.4997 13.8076C10.9223 13.1859 10.526 12.5303 10.4845 11.6335C10.4128 11.7013 10.3448 11.7729 10.2807 11.8483C9.86929 12.323 9.66171 12.8581 9.66171 13.4496C9.66171 14.418 10.092 15.2281 10.9525 15.8799L12.832 17.2816L13.8547 18.0427C14.6737 18.6493 15.2172 19.1316 15.4889 19.4858C15.4889 19.4858 15.4927 19.4895 15.4965 19.4933C15.8663 19.9794 16.0928 20.5446 16.1683 21.1851C16.5344 20.8347 16.7419 20.3336 16.7872 19.6855C16.7948 19.5875 16.7986 19.482 16.7986 19.3765C16.7986 19.2183 16.7872 19.0638 16.7608 18.9131C16.6287 18.1143 16.1494 17.3984 15.3229 16.7691H15.3153Z" fill="#DA2F36"/>
<path d="M17.6666 13.8829L16.1343 12.6961C15.7909 12.4361 15.4852 12.2025 15.2172 11.999C14.4812 11.4376 14.0397 11.0909 13.8849 10.9553C13.8698 10.9402 13.8585 10.9289 13.8472 10.9214C13.0471 10.2846 12.5942 9.47075 12.5942 8.42328C12.5942 8.37807 12.5942 8.25373 12.5942 8.20851C12.3828 8.34039 12.179 8.52501 12.0243 8.75109C11.6997 9.22584 11.6054 9.87015 11.6054 10.1942C11.6054 10.2733 11.6054 10.3524 11.6167 10.4278C11.6318 10.6426 11.6695 10.8498 11.7299 11.0457C11.9149 11.6486 12.3036 12.1723 12.8961 12.6207L14.7115 13.9734L15.3078 14.418L15.7946 14.7835C16.6174 15.3939 17.1646 15.8799 17.4326 16.2341C17.8968 16.8483 18.1308 17.5755 18.1308 18.427C18.1308 18.476 18.1308 18.525 18.1308 18.5777C18.8026 18.1972 19.1385 17.5001 19.1385 16.4866C19.1385 15.473 18.6479 14.6328 17.6628 13.8792L17.6666 13.8829Z" fill="#DA2F36"/>
<path d="M28.4341 12.0291L24.9733 8.99222V4.3954C24.9733 3.43459 24.192 2.65464 23.2296 2.65464H21.3615C20.433 2.65464 19.6782 3.38184 19.6254 4.29744L19.5348 4.21831C17.7345 2.40596 17.3156 1.27559 17.493 0.431588C17.5383 0.220587 17.3534 0.0321922 17.1382 0.0133528C14.1718 -0.216488 11.3752 2.59059 10.809 3.06534L10.2769 3.52879L0.501957 12.0291C0.150964 12.3796 0 12.7827 0 13.2349C0 14.1392 0.705758 14.8475 1.61154 14.8475H3.22309V23.2838C3.22309 25.0585 4.66857 26.5016 6.44618 26.5016H22.5767C24.3657 26.5016 25.8074 25.0547 25.7998 23.2687L25.7658 14.84H27.3812C28.2379 14.8438 28.9927 14.1429 28.9927 13.2311C29.0418 12.7789 28.8417 12.3758 28.4379 12.0254L28.4341 12.0291ZM19.2517 18.6832C18.8743 19.0261 18.4705 19.2861 18.0402 19.4519C17.878 20.2921 17.4968 21.0005 16.9005 21.5694C16.6702 21.7804 16.4287 21.9613 16.1758 22.1045C15.7607 22.3456 15.3153 22.4926 14.8473 22.5491C14.8398 22.2816 14.7983 22.0253 14.7153 21.7767C14.5077 21.1361 14.0586 20.5521 13.3717 20.0246L11.8394 18.8415C11.5412 18.6154 11.2733 18.4119 11.0355 18.2273C10.8279 18.0691 10.6468 17.9296 10.4807 17.8015C9.94855 17.3908 9.64285 17.1459 9.55605 17.063C8.85783 16.3132 8.50684 15.4127 8.50684 14.3652C8.50684 13.3178 8.79368 12.4511 9.36734 11.6976C9.68437 11.2944 10.0505 10.9854 10.4656 10.7707C10.5222 9.88521 10.8053 9.10903 11.3148 8.44211C11.745 7.892 12.2696 7.51521 12.8848 7.31551C13.2169 7.20625 13.5755 7.14596 13.9642 7.13842C13.9604 7.19117 13.9604 7.24769 13.9604 7.30044C13.9604 7.45869 13.9718 7.60941 13.9944 7.76013C14.1114 8.52877 14.5303 9.18439 15.2474 9.7345L16.6778 10.8008L17.259 11.2341L18.1497 11.8973C18.9724 12.5077 19.5197 12.9937 19.7877 13.3479C20.2519 13.9621 20.4859 14.6893 20.4859 15.5408C20.4859 16.8445 20.0745 17.892 19.2517 18.6832Z" fill="#DA2F36"/>
</svg>
